<?xml version="1.0" encoding="utf-8" standalone="no"?>
<!DOCTYPE svg PUBLIC "-//W3C//DTD SVG 1.1//EN"
  "http://www.w3.org/Graphics/SVG/1.1/DTD/svg11.dtd">
<svg xmlns:xlink="http://www.w3.org/1999/xlink" width="581.274969pt" height="267.95625pt" viewBox="0 0 581.274969 267.95625" xmlns="http://www.w3.org/2000/svg" version="1.1">
 <metadata>
  <rdf:RDF xmlns:dc="http://purl.org/dc/elements/1.1/" xmlns:cc="http://creativecommons.org/ns#" xmlns:rdf="http://www.w3.org/1999/02/22-rdf-syntax-ns#">
   <cc:Work>
    <dc:type rdf:resource="http://purl.org/dc/dcmitype/StillImage"/>
    <dc:date>2026-08-22T15:19:19.669905</dc:date>
    <dc:format>image/svg+xml</dc:format>
    <dc:creator>
     <cc:Agent>
      <dc:title>Matplotlib v3.9.4, https://matplotlib.org/</dc:title>
     </cc:Agent>
    </dc:creator>
   </cc:Work>
  </rdf:RDF>
 </metadata>
 <defs>
  <style type="text/css">*{stroke-linejoin: round; stroke-linecap: butt}</style>
 </defs>
 <g id="figure_1">
  <g id="patch_1">
   <path d="M 0 267.95625 
L 581.274969 267.95625 
L 581.274969 0 
L 0 0 
z
" style="fill: #ffffff"/>
  </g>
  <g id="axes_1">
   <g id="patch_2">
    <path d="M 46.965625 244.078125 
L 549.165625 244.078125 
L 549.165625 22.318125 
L 46.965625 22.318125 
z
" style="fill: #ffffff"/>
   </g>
   <g id="matplotlib.axis_1">
    <g id="xtick_1">
     <g id="line2d_1">
      <path d="M 69.792898 244.078125 
L 69.792898 22.318125 
" clip-path="url(#p759ba1adbe)" style="fill: none; stroke: #b0b0b0; stroke-opacity: 0.3; stroke-width: 0.8; stroke-linecap: square"/>
     </g>
     <g id="line2d_2">
      <defs>
       <path id="md8d9b63afb" d="M 0 0 
L 0 3.5 
" style="stroke: #000000; stroke-width: 0.8"/>
      </defs>
      <g>
       <use xlink:href="#md8d9b63afb" x="69.792898" y="244.078125" style="stroke: #000000; stroke-width: 0.8"/>
      </g>
     </g>
     <g id="text_1">
      <!-- 0 -->
      <g transform="translate(66.611648 258.676562) scale(0.1 -0.1)">
       <defs>
        <path id="DejaVuSans-30" d="M 2034 4250 
Q 1547 4250 1301 3770 
Q 1056 3291 1056 2328 
Q 1056 1369 1301 889 
Q 1547 409 2034 409 
Q 2525 409 2770 889 
Q 3016 1369 3016 2328 
Q 3016 3291 2770 3770 
Q 2525 4250 2034 4250 
z
M 2034 4750 
Q 2819 4750 3233 4129 
Q 3647 3509 3647 2328 
Q 3647 1150 3233 529 
Q 2819 -91 2034 -91 
Q 1250 -91 836 529 
Q 422 1150 422 2328 
Q 422 3509 836 4129 
Q 1250 4750 2034 4750 
z
" transform="scale(0.015625)"/>
       </defs>
       <use xlink:href="#DejaVuSans-30"/>
      </g>
     </g>
    </g>
    <g id="xtick_2">
     <g id="line2d_3">
      <path d="M 137.832459 244.078125 
L 137.832459 22.318125 
" clip-path="url(#p759ba1adbe)" style="fill: none; stroke: #b0b0b0; stroke-opacity: 0.3; stroke-width: 0.8; stroke-linecap: square"/>
     </g>
     <g id="line2d_4">
      <g>
       <use xlink:href="#md8d9b63afb" x="137.832459" y="244.078125" style="stroke: #000000; stroke-width: 0.8"/>
      </g>
     </g>
     <g id="text_2">
      <!-- 100 -->
      <g transform="translate(128.288709 258.676562) scale(0.1 -0.1)">
       <defs>
        <path id="DejaVuSans-31" d="M 794 531 
L 1825 531 
L 1825 4091 
L 703 3866 
L 703 4441 
L 1819 4666 
L 2450 4666 
L 2450 531 
L 3481 531 
L 3481 0 
L 794 0 
L 794 531 
z
" transform="scale(0.015625)"/>
       </defs>
       <use xlink:href="#DejaVuSans-31"/>
       <use xlink:href="#DejaVuSans-30" x="63.623047"/>
       <use xlink:href="#DejaVuSans-30" x="127.246094"/>
      </g>
     </g>
    </g>
    <g id="xtick_3">
     <g id="line2d_5">
      <path d="M 205.87202 244.078125 
L 205.87202 22.318125 
" clip-path="url(#p759ba1adbe)" style="fill: none; stroke: #b0b0b0; stroke-opacity: 0.3; stroke-width: 0.8; stroke-linecap: square"/>
     </g>
     <g id="line2d_6">
      <g>
       <use xlink:href="#md8d9b63afb" x="205.87202" y="244.078125" style="stroke: #000000; stroke-width: 0.8"/>
      </g>
     </g>
     <g id="text_3">
      <!-- 200 -->
      <g transform="translate(196.32827 258.676562) scale(0.1 -0.1)">
       <defs>
        <path id="DejaVuSans-32" d="M 1228 531 
L 3431 531 
L 3431 0 
L 469 0 
L 469 531 
Q 828 903 1448 1529 
Q 2069 2156 2228 2338 
Q 2531 2678 2651 2914 
Q 2772 3150 2772 3378 
Q 2772 3750 2511 3984 
Q 2250 4219 1831 4219 
Q 1534 4219 1204 4116 
Q 875 4013 500 3803 
L 500 4441 
Q 881 4594 1212 4672 
Q 1544 4750 1819 4750 
Q 2544 4750 2975 4387 
Q 3406 4025 3406 3419 
Q 3406 3131 3298 2873 
Q 3191 2616 2906 2266 
Q 2828 2175 2409 1742 
Q 1991 1309 1228 531 
z
" transform="scale(0.015625)"/>
       </defs>
       <use xlink:href="#DejaVuSans-32"/>
       <use xlink:href="#DejaVuSans-30" x="63.623047"/>
       <use xlink:href="#DejaVuSans-30" x="127.246094"/>
      </g>
     </g>
    </g>
    <g id="xtick_4">
     <g id="line2d_7">
      <path d="M 273.911581 244.078125 
L 273.911581 22.318125 
" clip-path="url(#p759ba1adbe)" style="fill: none; stroke: #b0b0b0; stroke-opacity: 0.3; stroke-width: 0.8; stroke-linecap: square"/>
     </g>
     <g id="line2d_8">
      <g>
       <use xlink:href="#md8d9b63afb" x="273.911581" y="244.078125" style="stroke: #000000; stroke-width: 0.8"/>
      </g>
     </g>
     <g id="text_4">
      <!-- 300 -->
      <g transform="translate(264.367831 258.676562) scale(0.1 -0.1)">
       <defs>
        <path id="DejaVuSans-33" d="M 2597 2516 
Q 3050 2419 3304 2112 
Q 3559 1806 3559 1356 
Q 3559 666 3084 287 
Q 2609 -91 1734 -91 
Q 1441 -91 1130 -33 
Q 819 25 488 141 
L 488 750 
Q 750 597 1062 519 
Q 1375 441 1716 441 
Q 2309 441 2620 675 
Q 2931 909 2931 1356 
Q 2931 1769 2642 2001 
Q 2353 2234 1838 2234 
L 1294 2234 
L 1294 2753 
L 1863 2753 
Q 2328 2753 2575 2939 
Q 2822 3125 2822 3475 
Q 2822 3834 2567 4026 
Q 2313 4219 1838 4219 
Q 1578 4219 1281 4162 
Q 984 4106 628 3988 
L 628 4550 
Q 988 4650 1302 4700 
Q 1616 4750 1894 4750 
Q 2613 4750 3031 4423 
Q 3450 4097 3450 3541 
Q 3450 3153 3228 2886 
Q 3006 2619 2597 2516 
z
" transform="scale(0.015625)"/>
       </defs>
       <use xlink:href="#DejaVuSans-33"/>
       <use xlink:href="#DejaVuSans-30" x="63.623047"/>
       <use xlink:href="#DejaVuSans-30" x="127.246094"/>
      </g>
     </g>
    </g>
    <g id="xtick_5">
     <g id="line2d_9">
      <path d="M 341.951142 244.078125 
L 341.951142 22.318125 
" clip-path="url(#p759ba1adbe)" style="fill: none; stroke: #b0b0b0; stroke-opacity: 0.3; stroke-width: 0.8; stroke-linecap: square"/>
     </g>
     <g id="line2d_10">
      <g>
       <use xlink:href="#md8d9b63afb" x="341.951142" y="244.078125" style="stroke: #000000; stroke-width: 0.8"/>
      </g>
     </g>
     <g id="text_5">
      <!-- 400 -->
      <g transform="translate(332.407392 258.676562) scale(0.1 -0.1)">
       <defs>
        <path id="DejaVuSans-34" d="M 2419 4116 
L 825 1625 
L 2419 1625 
L 2419 4116 
z
M 2253 4666 
L 3047 4666 
L 3047 1625 
L 3713 1625 
L 3713 1100 
L 3047 1100 
L 3047 0 
L 2419 0 
L 2419 1100 
L 313 1100 
L 313 1709 
L 2253 4666 
z
" transform="scale(0.015625)"/>
       </defs>
       <use xlink:href="#DejaVuSans-34"/>
       <use xlink:href="#DejaVuSans-30" x="63.623047"/>
       <use xlink:href="#DejaVuSans-30" x="127.246094"/>
      </g>
     </g>
    </g>
    <g id="xtick_6">
     <g id="line2d_11">
      <path d="M 409.990703 244.078125 
L 409.990703 22.318125 
" clip-path="url(#p759ba1adbe)" style="fill: none; stroke: #b0b0b0; stroke-opacity: 0.3; stroke-width: 0.8; stroke-linecap: square"/>
     </g>
     <g id="line2d_12">
      <g>
       <use xlink:href="#md8d9b63afb" x="409.990703" y="244.078125" style="stroke: #000000; stroke-width: 0.8"/>
      </g>
     </g>
     <g id="text_6">
      <!-- 500 -->
      <g transform="translate(400.446953 258.676562) scale(0.1 -0.1)">
       <defs>
        <path id="DejaVuSans-35" d="M 691 4666 
L 3169 4666 
L 3169 4134 
L 1269 4134 
L 1269 2991 
Q 1406 3038 1543 3061 
Q 1681 3084 1819 3084 
Q 2600 3084 3056 2656 
Q 3513 2228 3513 1497 
Q 3513 744 3044 326 
Q 2575 -91 1722 -91 
Q 1428 -91 1123 -41 
Q 819 9 494 109 
L 494 744 
Q 775 591 1075 516 
Q 1375 441 1709 441 
Q 2250 441 2565 725 
Q 2881 1009 2881 1497 
Q 2881 1984 2565 2268 
Q 2250 2553 1709 2553 
Q 1456 2553 1204 2497 
Q 953 2441 691 2322 
L 691 4666 
z
" transform="scale(0.015625)"/>
       </defs>
       <use xlink:href="#DejaVuSans-35"/>
       <use xlink:href="#DejaVuSans-30" x="63.623047"/>
       <use xlink:href="#DejaVuSans-30" x="127.246094"/>
      </g>
     </g>
    </g>
    <g id="xtick_7">
     <g id="line2d_13">
      <path d="M 478.030264 244.078125 
L 478.030264 22.318125 
" clip-path="url(#p759ba1adbe)" style="fill: none; stroke: #b0b0b0; stroke-opacity: 0.3; stroke-width: 0.8; stroke-linecap: square"/>
     </g>
     <g id="line2d_14">
      <g>
       <use xlink:href="#md8d9b63afb" x="478.030264" y="244.078125" style="stroke: #000000; stroke-width: 0.8"/>
      </g>
     </g>
     <g id="text_7">
      <!-- 600 -->
      <g transform="translate(468.486514 258.676562) scale(0.1 -0.1)">
       <defs>
        <path id="DejaVuSans-36" d="M 2113 2584 
Q 1688 2584 1439 2293 
Q 1191 2003 1191 1497 
Q 1191 994 1439 701 
Q 1688 409 2113 409 
Q 2538 409 2786 701 
Q 3034 994 3034 1497 
Q 3034 2003 2786 2293 
Q 2538 2584 2113 2584 
z
M 3366 4563 
L 3366 3988 
Q 3128 4100 2886 4159 
Q 2644 4219 2406 4219 
Q 1781 4219 1451 3797 
Q 1122 3375 1075 2522 
Q 1259 2794 1537 2939 
Q 1816 3084 2150 3084 
Q 2853 3084 3261 2657 
Q 3669 2231 3669 1497 
Q 3669 778 3244 343 
Q 2819 -91 2113 -91 
Q 1303 -91 875 529 
Q 447 1150 447 2328 
Q 447 3434 972 4092 
Q 1497 4750 2381 4750 
Q 2619 4750 2861 4703 
Q 3103 4656 3366 4563 
z
" transform="scale(0.015625)"/>
       </defs>
       <use xlink:href="#DejaVuSans-36"/>
       <use xlink:href="#DejaVuSans-30" x="63.623047"/>
       <use xlink:href="#DejaVuSans-30" x="127.246094"/>
      </g>
     </g>
    </g>
    <g id="xtick_8">
     <g id="line2d_15">
      <path d="M 546.069825 244.078125 
L 546.069825 22.318125 
" clip-path="url(#p759ba1adbe)" style="fill: none; stroke: #b0b0b0; stroke-opacity: 0.3; stroke-width: 0.8; stroke-linecap: square"/>
     </g>
     <g id="line2d_16">
      <g>
       <use xlink:href="#md8d9b63afb" x="546.069825" y="244.078125" style="stroke: #000000; stroke-width: 0.8"/>
      </g>
     </g>
     <g id="text_8">
      <!-- 700 -->
      <g transform="translate(536.526075 258.676562) scale(0.1 -0.1)">
       <defs>
        <path id="DejaVuSans-37" d="M 525 4666 
L 3525 4666 
L 3525 4397 
L 1831 0 
L 1172 0 
L 2766 4134 
L 525 4134 
L 525 4666 
z
" transform="scale(0.015625)"/>
       </defs>
       <use xlink:href="#DejaVuSans-37"/>
       <use xlink:href="#DejaVuSans-30" x="63.623047"/>
       <use xlink:href="#DejaVuSans-30" x="127.246094"/>
      </g>
     </g>
    </g>
   </g>
   <g id="matplotlib.axis_2">
    <g id="ytick_1">
     <g id="line2d_17">
      <path d="M 46.965625 234.400337 
L 549.165625 234.400337 
" clip-path="url(#p759ba1adbe)" style="fill: none; stroke: #b0b0b0; stroke-opacity: 0.3; stroke-width: 0.8; stroke-linecap: square"/>
     </g>
     <g id="line2d_18">
      <defs>
       <path id="md61ea5719a" d="M 0 0 
L -3.5 0 
" style="stroke: #000000; stroke-width: 0.8"/>
      </defs>
      <g>
       <use xlink:href="#md61ea5719a" x="46.965625" y="234.400337" style="stroke: #000000; stroke-width: 0.8"/>
      </g>
     </g>
     <g id="text_9">
      <!-- 25 -->
      <g transform="translate(27.240625 238.199556) scale(0.1 -0.1)">
       <use xlink:href="#DejaVuSans-32"/>
       <use xlink:href="#DejaVuSans-35" x="63.623047"/>
      </g>
     </g>
    </g>
    <g id="ytick_2">
     <g id="line2d_19">
      <path d="M 46.965625 205.803819 
L 549.165625 205.803819 
" clip-path="url(#p759ba1adbe)" style="fill: none; stroke: #b0b0b0; stroke-opacity: 0.3; stroke-width: 0.8; stroke-linecap: square"/>
     </g>
     <g id="line2d_20">
      <g>
       <use xlink:href="#md61ea5719a" x="46.965625" y="205.803819" style="stroke: #000000; stroke-width: 0.8"/>
      </g>
     </g>
     <g id="text_10">
      <!-- 50 -->
      <g transform="translate(27.240625 209.603038) scale(0.1 -0.1)">
       <use xlink:href="#DejaVuSans-35"/>
       <use xlink:href="#DejaVuSans-30" x="63.623047"/>
      </g>
     </g>
    </g>
    <g id="ytick_3">
     <g id="line2d_21">
      <path d="M 46.965625 177.207302 
L 549.165625 177.207302 
" clip-path="url(#p759ba1adbe)" style="fill: none; stroke: #b0b0b0; stroke-opacity: 0.3; stroke-width: 0.8; stroke-linecap: square"/>
     </g>
     <g id="line2d_22">
      <g>
       <use xlink:href="#md61ea5719a" x="46.965625" y="177.207302" style="stroke: #000000; stroke-width: 0.8"/>
      </g>
     </g>
     <g id="text_11">
      <!-- 75 -->
      <g transform="translate(27.240625 181.00652) scale(0.1 -0.1)">
       <use xlink:href="#DejaVuSans-37"/>
       <use xlink:href="#DejaVuSans-35" x="63.623047"/>
      </g>
     </g>
    </g>
    <g id="ytick_4">
     <g id="line2d_23">
      <path d="M 46.965625 148.610784 
L 549.165625 148.610784 
" clip-path="url(#p759ba1adbe)" style="fill: none; stroke: #b0b0b0; stroke-opacity: 0.3; stroke-width: 0.8; stroke-linecap: square"/>
     </g>
     <g id="line2d_24">
      <g>
       <use xlink:href="#md61ea5719a" x="46.965625" y="148.610784" style="stroke: #000000; stroke-width: 0.8"/>
      </g>
     </g>
     <g id="text_12">
      <!-- 100 -->
      <g transform="translate(20.878125 152.410003) scale(0.1 -0.1)">
       <use xlink:href="#DejaVuSans-31"/>
       <use xlink:href="#DejaVuSans-30" x="63.623047"/>
       <use xlink:href="#DejaVuSans-30" x="127.246094"/>
      </g>
     </g>
    </g>
    <g id="ytick_5">
     <g id="line2d_25">
      <path d="M 46.965625 120.014266 
L 549.165625 120.014266 
" clip-path="url(#p759ba1adbe)" style="fill: none; stroke: #b0b0b0; stroke-opacity: 0.3; stroke-width: 0.8; stroke-linecap: square"/>
     </g>
     <g id="line2d_26">
      <g>
       <use xlink:href="#md61ea5719a" x="46.965625" y="120.014266" style="stroke: #000000; stroke-width: 0.8"/>
      </g>
     </g>
     <g id="text_13">
      <!-- 125 -->
      <g transform="translate(20.878125 123.813485) scale(0.1 -0.1)">
       <use xlink:href="#DejaVuSans-31"/>
       <use xlink:href="#DejaVuSans-32" x="63.623047"/>
       <use xlink:href="#DejaVuSans-35" x="127.246094"/>
      </g>
     </g>
    </g>
    <g id="ytick_6">
     <g id="line2d_27">
      <path d="M 46.965625 91.417749 
L 549.165625 91.417749 
" clip-path="url(#p759ba1adbe)" style="fill: none; stroke: #b0b0b0; stroke-opacity: 0.3; stroke-width: 0.8; stroke-linecap: square"/>
     </g>
     <g id="line2d_28">
      <g>
       <use xlink:href="#md61ea5719a" x="46.965625" y="91.417749" style="stroke: #000000; stroke-width: 0.8"/>
      </g>
     </g>
     <g id="text_14">
      <!-- 150 -->
      <g transform="translate(20.878125 95.216967) scale(0.1 -0.1)">
       <use xlink:href="#DejaVuSans-31"/>
       <use xlink:href="#DejaVuSans-35" x="63.623047"/>
       <use xlink:href="#DejaVuSans-30" x="127.246094"/>
      </g>
     </g>
    </g>
    <g id="ytick_7">
     <g id="line2d_29">
      <path d="M 46.965625 62.821231 
L 549.165625 62.821231 
" clip-path="url(#p759ba1adbe)" style="fill: none; stroke: #b0b0b0; stroke-opacity: 0.3; stroke-width: 0.8; stroke-linecap: square"/>
     </g>
     <g id="line2d_30">
      <g>
       <use xlink:href="#md61ea5719a" x="46.965625" y="62.821231" style="stroke: #000000; stroke-width: 0.8"/>
      </g>
     </g>
     <g id="text_15">
      <!-- 175 -->
      <g transform="translate(20.878125 66.62045) scale(0.1 -0.1)">
       <use xlink:href="#DejaVuSans-31"/>
       <use xlink:href="#DejaVuSans-37" x="63.623047"/>
       <use xlink:href="#DejaVuSans-35" x="127.246094"/>
      </g>
     </g>
    </g>
    <g id="ytick_8">
     <g id="line2d_31">
      <path d="M 46.965625 34.224713 
L 549.165625 34.224713 
" clip-path="url(#p759ba1adbe)" style="fill: none; stroke: #b0b0b0; stroke-opacity: 0.3; stroke-width: 0.8; stroke-linecap: square"/>
     </g>
     <g id="line2d_32">
      <g>
       <use xlink:href="#md61ea5719a" x="46.965625" y="34.224713" style="stroke: #000000; stroke-width: 0.8"/>
      </g>
     </g>
     <g id="text_16">
      <!-- 200 -->
      <g transform="translate(20.878125 38.023932) scale(0.1 -0.1)">
       <use xlink:href="#DejaVuSans-32"/>
       <use xlink:href="#DejaVuSans-30" x="63.623047"/>
       <use xlink:href="#DejaVuSans-30" x="127.246094"/>
      </g>
     </g>
    </g>
    <g id="text_17">
     <!-- kW -->
     <g transform="translate(14.798438 141.037188) rotate(-90) scale(0.1 -0.1)">
      <defs>
       <path id="DejaVuSans-6b" d="M 581 4863 
L 1159 4863 
L 1159 1991 
L 2875 3500 
L 3609 3500 
L 1753 1863 
L 3688 0 
L 2938 0 
L 1159 1709 
L 1159 0 
L 581 0 
L 581 4863 
z
" transform="scale(0.015625)"/>
       <path id="DejaVuSans-57" d="M 213 4666 
L 850 4666 
L 1831 722 
L 2809 4666 
L 3519 4666 
L 4500 722 
L 5478 4666 
L 6119 4666 
L 4947 0 
L 4153 0 
L 3169 4050 
L 2175 0 
L 1381 0 
L 213 4666 
z
" transform="scale(0.015625)"/>
      </defs>
      <use xlink:href="#DejaVuSans-6b"/>
      <use xlink:href="#DejaVuSans-57" x="57.910156"/>
     </g>
    </g>
   </g>
   <g id="line2d_33">
    <path d="M 69.792898 120.85258 
L 71.834085 121.199903 
L 75.236063 120.986032 
L 77.957645 121.222195 
L 80.679227 121.679601 
L 83.40081 121.832406 
L 84.081206 121.794422 
L 84.761601 119.062575 
L 85.441997 119.025893 
L 86.122392 113.019651 
L 87.483184 114.079678 
L 88.163579 83.105788 
L 88.843975 95.724657 
L 89.52437 87.917822 
L 90.204766 54.266072 
L 90.885162 65.880461 
L 91.565557 62.312251 
L 92.926348 68.710411 
L 94.28714 75.205074 
L 94.967535 78.664964 
L 97.689118 89.042579 
L 99.049909 93.048625 
L 99.730305 95.673127 
L 100.4107 96.750008 
L 101.771491 100.625876 
L 103.132283 106.743158 
L 104.493074 113.790163 
L 105.173469 114.360108 
L 105.853865 116.471004 
L 106.534261 123.124929 
L 107.895052 125.385723 
L 109.255843 127.173718 
L 109.936239 132.556095 
L 110.616634 228.823021 
L 111.29703 209.036618 
L 111.977426 170.145019 
L 112.657821 169.529845 
L 113.338217 168.257267 
L 114.018612 165.641463 
L 114.699008 161.173395 
L 118.100986 148.370368 
L 118.781382 162.193853 
L 120.142173 160.098341 
L 124.224547 154.940747 
L 126.946129 152.498538 
L 128.987316 150.871076 
L 131.708898 149.47415 
L 134.430481 148.613109 
L 136.471668 149.458826 
L 137.152063 149.732248 
L 139.873646 150.157533 
L 142.595228 149.636808 
L 145.31681 151.678464 
L 148.038393 152.460368 
L 149.399184 152.327364 
L 150.07958 149.594657 
L 150.759975 149.528025 
L 151.440371 143.503124 
L 152.801162 144.492423 
L 153.481558 114.064966 
L 154.161953 118.420255 
L 154.842349 111.460079 
L 155.522745 78.887173 
L 156.20314 91.093048 
L 156.883536 87.652892 
L 157.563931 91.479854 
L 160.96591 107.133684 
L 164.367888 120.047288 
L 165.048283 122.948447 
L 166.409074 126.386623 
L 167.08947 127.968752 
L 169.130657 133.396722 
L 169.811052 135.058517 
L 171.171844 137.374014 
L 171.852239 144.34696 
L 172.532635 145.345189 
L 173.893426 146.390889 
L 174.573822 146.636781 
L 175.254217 151.422206 
L 175.934613 233.998125 
L 176.615009 233.998125 
L 177.295404 199.355346 
L 177.9758 191.810654 
L 178.656195 190.896739 
L 179.336591 187.021413 
L 180.016987 182.321481 
L 180.697382 179.331033 
L 182.058173 175.089102 
L 183.418965 171.178493 
L 184.09936 185.005718 
L 185.460151 182.965359 
L 186.140547 182.068614 
L 188.181734 178.380929 
L 189.542525 176.282164 
L 192.264108 172.467262 
L 194.305294 169.290442 
L 197.707272 165.518478 
L 199.748459 163.482195 
L 201.109251 163.528138 
L 202.470042 163.540015 
L 205.191624 162.147769 
L 207.913207 159.373347 
L 210.634789 153.713368 
L 213.356372 150.17908 
L 214.717163 145.222026 
L 215.397558 140.036224 
L 216.077954 137.505774 
L 216.75835 128.392217 
L 218.119141 123.156421 
L 218.799536 89.519577 
L 219.479932 103.662434 
L 220.160328 94.748879 
L 220.840723 59.982791 
L 221.521119 70.025051 
L 222.201514 65.013101 
L 222.88191 67.052977 
L 223.562306 67.356055 
L 224.242701 67.335565 
L 226.283888 69.566959 
L 226.964284 70.141914 
L 227.644679 70.87179 
L 229.005471 71.782724 
L 229.685866 72.652625 
L 230.366262 74.431057 
L 231.727053 75.365758 
L 232.407449 75.76783 
L 235.129031 79.37829 
L 235.809427 78.426655 
L 236.489822 79.127042 
L 237.170218 85.161697 
L 237.850613 85.976489 
L 239.211405 88.297968 
L 239.8918 90.116003 
L 240.572196 96.871717 
L 241.252592 194.24288 
L 241.932987 170.543901 
L 242.613383 125.772762 
L 243.293778 125.417104 
L 243.974174 121.750017 
L 244.65457 119.563594 
L 245.334965 113.503903 
L 246.695756 107.890925 
L 248.056548 103.72779 
L 248.736943 101.936742 
L 249.417339 116.411472 
L 250.77813 115.278718 
L 251.458526 114.857269 
L 253.499713 112.792676 
L 254.180108 112.187228 
L 258.262482 107.488825 
L 259.623273 105.725767 
L 262.344855 102.987647 
L 265.066438 101.868101 
L 267.107625 102.070834 
L 267.78802 102.13591 
L 275.952768 100.971195 
L 278.67435 99.651512 
L 280.035141 98.240219 
L 280.715537 94.818609 
L 281.395933 94.109589 
L 282.076328 85.481378 
L 283.437119 81.287668 
L 284.117515 47.510444 
L 284.797911 74.563545 
L 285.478306 66.348182 
L 286.158702 32.398125 
L 286.839097 43.85663 
L 287.519493 40.831878 
L 288.199889 44.540583 
L 289.56068 50.512499 
L 291.601867 61.231334 
L 296.364636 81.92201 
L 300.44701 95.240427 
L 301.127405 95.45529 
L 301.807801 97.049687 
L 303.168592 204.964733 
L 303.848988 180.48817 
L 304.529383 176.987514 
L 305.209779 178.51564 
L 305.890175 176.160722 
L 306.57057 175.87415 
L 307.250966 175.169499 
L 307.931361 135.82263 
L 308.611757 135.120268 
L 309.292153 133.765867 
L 309.972548 133.082553 
L 310.652944 127.980549 
L 312.694131 121.039969 
L 314.054922 117.311399 
L 314.735317 128.356263 
L 315.415713 128.255799 
L 316.776504 128.384789 
L 318.137296 127.350349 
L 319.498087 126.525092 
L 322.219669 123.389203 
L 324.941252 120.489671 
L 327.662834 119.786524 
L 330.384416 120.342162 
L 332.425603 120.742436 
L 333.786395 120.89723 
L 335.827581 121.00019 
L 340.590351 122.334316 
L 345.35312 123.668525 
L 346.033516 121.243312 
L 346.713911 121.515729 
L 347.394307 115.381297 
L 348.755098 116.192509 
L 349.435494 85.315431 
L 350.115889 98.507321 
L 350.796285 90.841367 
L 351.47668 57.343799 
L 352.157076 68.784109 
L 352.837472 65.565277 
L 353.517867 69.233936 
L 354.878658 72.466139 
L 357.600241 78.847594 
L 360.321823 86.623863 
L 361.002219 89.718201 
L 363.043406 95.05947 
L 364.404197 98.191587 
L 365.764988 100.646056 
L 366.445384 99.720346 
L 367.125779 100.394306 
L 367.806175 106.478159 
L 368.486571 107.145107 
L 369.847362 108.754994 
L 370.527758 110.018101 
L 371.208153 115.967542 
L 371.888549 213.396962 
L 372.568944 188.878629 
L 373.24934 152.101743 
L 373.929736 154.07379 
L 374.610131 150.47608 
L 375.290527 148.326509 
L 375.970922 143.108429 
L 376.651318 140.177932 
L 378.012109 135.685491 
L 379.3729 131.985123 
L 380.053296 146.344954 
L 381.414087 145.20946 
L 382.094483 144.81519 
L 384.13567 140.64525 
L 385.496461 137.911866 
L 388.218043 132.381938 
L 390.25923 128.630565 
L 394.341604 116.990995 
L 395.702395 112.911603 
L 398.423978 106.602552 
L 401.14556 103.343036 
L 407.26912 97.822976 
L 409.310307 96.486122 
L 412.03189 95.178314 
L 414.753472 90.17175 
L 415.433868 137.840047 
L 417.475055 137.219377 
L 418.835846 137.058309 
L 420.196637 137.308461 
L 421.557428 137.865977 
L 422.918219 138.871268 
L 429.722176 145.430392 
L 431.082967 146.984729 
L 433.124154 149.705841 
L 435.16534 151.538156 
L 436.526132 152.09621 
L 437.886923 152.691427 
L 438.567319 108.516875 
L 439.247714 109.338954 
L 439.92811 110.432363 
L 440.608505 111.137571 
L 441.288901 106.554612 
L 441.969297 105.180192 
L 442.649692 104.269735 
L 444.010483 103.103818 
L 444.690879 102.703058 
L 446.05167 101.248587 
L 447.412461 100.009589 
L 452.855626 98.860358 
L 456.257604 97.474407 
L 458.979187 95.832672 
L 463.741956 92.563427 
L 466.463539 89.835225 
L 469.185121 85.118384 
L 472.587099 80.857983 
L 475.989077 77.506558 
L 477.349868 76.256339 
L 480.071451 65.716946 
L 480.751846 119.743841 
L 482.793033 116.709874 
L 484.153824 115.602678 
L 484.83422 115.93729 
L 485.514616 116.735103 
L 486.875407 119.180506 
L 487.555802 120.644551 
L 488.916594 124.726419 
L 489.596989 126.928937 
L 490.957781 129.900382 
L 492.318572 132.545011 
L 493.679363 135.561505 
L 495.040154 139.82823 
L 495.72055 141.259443 
L 496.400945 142.157884 
L 497.081341 142.43785 
L 497.761737 142.530881 
L 499.122528 143.413527 
L 499.802923 143.396474 
L 500.483319 143.736854 
L 503.204902 144.529955 
L 503.885297 93.796873 
L 504.565693 94.760854 
L 505.246088 96.285501 
L 505.926484 97.212438 
L 506.60688 91.738239 
L 507.287275 90.172504 
L 507.967671 89.214619 
L 508.648066 88.564477 
L 510.008858 87.773335 
L 511.369649 87.568025 
L 512.73044 87.674822 
L 514.091231 87.859662 
L 516.132418 88.228279 
L 518.173605 88.419773 
L 521.575583 87.751123 
L 523.61677 87.080338 
L 526.338352 85.468732 
L 526.338352 85.468732 
" clip-path="url(#p759ba1adbe)" style="fill: none; stroke: #1f77b4; stroke-opacity: 0.85; stroke-width: 1.5; stroke-linecap: square"/>
   </g>
   <g id="line2d_34">
    <path d="M 69.792898 113.540229 
L 71.834085 113.898387 
L 75.236063 113.695782 
L 77.957645 113.945916 
L 80.679227 114.417443 
L 83.40081 114.583227 
L 84.081206 114.547366 
L 84.761601 111.822032 
L 85.441997 111.787509 
L 86.122392 105.795103 
L 87.483184 106.871292 
L 88.163579 87.921983 
L 88.843975 111.88833 
L 89.52437 112.058524 
L 90.204766 86.216389 
L 90.885162 86.63706 
L 91.565557 87.578938 
L 92.245953 87.843314 
L 92.926348 89.693286 
L 94.28714 94.598994 
L 94.967535 97.40625 
L 98.369513 107.67646 
L 99.049909 109.446686 
L 99.730305 111.880191 
L 100.4107 112.797362 
L 101.771491 116.095061 
L 104.493074 127.188687 
L 105.173469 128.840451 
L 105.853865 129.951577 
L 106.534261 136.157753 
L 107.214656 137.213272 
L 108.575448 138.584326 
L 109.255843 139.235491 
L 109.936239 144.214965 
L 110.616634 185.923318 
L 111.29703 185.726756 
L 111.977426 158.466848 
L 112.657821 157.624783 
L 114.018612 154.193512 
L 114.699008 149.30596 
L 116.740195 141.132437 
L 118.100986 136.52779 
L 118.781382 150.455225 
L 120.142173 148.541149 
L 121.502964 146.832905 
L 123.544151 144.443935 
L 125.585338 142.686571 
L 127.626525 141.148207 
L 128.987316 140.191311 
L 131.708898 139.019929 
L 134.430481 138.380248 
L 136.471668 139.395043 
L 137.152063 139.724295 
L 139.873646 140.358623 
L 142.595228 140.030021 
L 145.31681 142.273577 
L 148.038393 143.242408 
L 149.399184 143.192812 
L 150.07958 140.503783 
L 150.759975 140.477623 
L 151.440371 134.504158 
L 152.801162 135.581932 
L 153.481558 116.722681 
L 154.161953 131.954992 
L 154.842349 132.716853 
L 155.522745 107.734098 
L 156.20314 108.834861 
L 156.883536 110.215551 
L 157.563931 110.912958 
L 158.924723 115.476978 
L 160.96591 122.909698 
L 162.326701 127.461983 
L 164.367888 134.114058 
L 166.409074 138.573908 
L 167.08947 139.86881 
L 168.450261 142.948815 
L 169.130657 144.219258 
L 169.811052 145.020558 
L 171.171844 145.366161 
L 171.852239 151.417279 
L 173.893426 151.781201 
L 174.573822 151.820979 
L 175.254217 163.545946 
L 175.934613 203.084341 
L 176.615009 202.78171 
L 177.295404 184.141826 
L 177.9758 182.164455 
L 179.336591 176.020673 
L 180.016987 171.224126 
L 180.697382 168.151149 
L 182.058173 163.573407 
L 183.418965 159.59875 
L 184.09936 173.455137 
L 185.460151 171.496382 
L 186.140547 170.656164 
L 188.181734 167.137805 
L 189.542525 165.149363 
L 192.264108 161.543383 
L 194.305294 158.508873 
L 197.707272 154.973081 
L 199.748459 153.074381 
L 201.789646 153.279571 
L 202.470042 153.343555 
L 205.191624 152.14134 
L 207.913207 149.533861 
L 210.634789 144.004045 
L 213.356372 140.61235 
L 214.717163 135.690884 
L 215.397558 130.523251 
L 216.077954 128.007873 
L 216.75835 118.916262 
L 218.119141 113.708387 
L 218.799536 91.582833 
L 219.479932 116.59478 
L 220.160328 115.435867 
L 220.840723 88.298416 
L 221.521119 87.407423 
L 222.201514 87.122842 
L 222.88191 86.155986 
L 224.242701 84.843762 
L 224.923097 85.0887 
L 226.283888 85.752786 
L 226.964284 86.014601 
L 227.644679 86.472425 
L 228.325075 86.631496 
L 229.005471 86.908532 
L 229.685866 87.576614 
L 230.366262 89.208943 
L 231.727053 89.741798 
L 232.407449 89.960037 
L 235.129031 92.850876 
L 235.809427 91.644762 
L 236.489822 92.175023 
L 237.170218 98.04532 
L 237.850613 98.693316 
L 239.211405 100.664522 
L 239.8918 102.268852 
L 240.572196 108.582765 
L 241.252592 151.565587 
L 241.932987 152.489881 
L 242.613383 108.758354 
L 243.293778 108.447053 
L 244.65457 105.134282 
L 245.334965 99.094588 
L 246.015361 96.261396 
L 247.376152 91.927224 
L 248.736943 88.510064 
L 249.417339 103.141336 
L 250.77813 102.245691 
L 251.458526 101.936875 
L 253.499713 100.164001 
L 254.180108 99.647327 
L 257.582086 96.245127 
L 259.623273 93.81659 
L 262.344855 91.359298 
L 265.066438 90.513104 
L 267.107625 90.920068 
L 267.78802 91.052108 
L 275.952768 90.600386 
L 278.67435 89.485619 
L 280.035141 88.166855 
L 280.715537 84.79126 
L 281.395933 84.125688 
L 282.076328 75.535547 
L 283.437119 71.405248 
L 284.117515 49.700917 
L 284.797911 88.122962 
L 285.478306 88.017009 
L 286.158702 61.925125 
L 286.839097 62.458805 
L 287.519493 63.749702 
L 288.199889 64.394506 
L 288.880284 66.294883 
L 289.56068 68.534305 
L 291.601867 77.589014 
L 295.003845 90.458865 
L 295.68424 94.044533 
L 297.045032 98.163731 
L 298.405823 102.116997 
L 299.766614 106.146879 
L 300.44701 107.991156 
L 301.127405 107.888839 
L 301.807801 109.243391 
L 302.488196 164.304191 
L 303.168592 164.778755 
L 304.529383 165.230537 
L 305.209779 165.170448 
L 305.890175 164.984754 
L 306.57057 165.081736 
L 307.250966 164.620811 
L 307.931361 123.416457 
L 308.611757 122.70851 
L 309.292153 121.375344 
L 309.972548 120.826053 
L 310.652944 115.435061 
L 312.694131 108.630262 
L 314.054922 105.072653 
L 314.735317 116.209475 
L 315.415713 116.194968 
L 316.776504 116.495318 
L 318.137296 115.622364 
L 319.498087 114.941113 
L 322.219669 112.075762 
L 324.941252 109.430656 
L 327.662834 108.97412 
L 330.384416 109.776164 
L 332.425603 110.354253 
L 333.786395 110.624533 
L 335.827581 110.89236 
L 340.590351 112.591206 
L 345.35312 114.255 
L 346.033516 111.877864 
L 346.713911 112.195102 
L 347.394307 106.111019 
L 348.755098 107.011107 
L 349.435494 87.974256 
L 350.115889 112.302839 
L 350.796285 112.563787 
L 351.47668 86.816757 
L 352.157076 87.327347 
L 352.837472 88.587707 
L 353.517867 89.162699 
L 354.878658 90.67002 
L 356.23945 92.770263 
L 357.600241 95.264487 
L 360.321823 101.883116 
L 361.002219 104.782562 
L 363.043406 109.384643 
L 364.404197 112.046385 
L 365.764988 114.083095 
L 366.445384 112.880609 
L 367.125779 113.366091 
L 367.806175 119.255318 
L 368.486571 119.739401 
L 369.847362 120.990382 
L 370.527758 121.998301 
L 371.208153 127.47173 
L 371.888549 169.756307 
L 372.568944 170.19738 
L 373.24934 138.179266 
L 373.929736 137.642275 
L 374.610131 136.413023 
L 375.290527 134.589939 
L 375.970922 129.204622 
L 376.651318 126.470917 
L 378.012109 122.366605 
L 379.3729 118.982316 
L 380.053296 133.480158 
L 381.414087 132.575864 
L 382.094483 132.286699 
L 384.13567 128.398943 
L 385.496461 125.831947 
L 388.218043 120.600595 
L 390.25923 117.053543 
L 394.341604 105.757528 
L 395.702395 101.780678 
L 398.423978 95.678844 
L 401.14556 92.635152 
L 407.26912 87.566205 
L 409.310307 86.368563 
L 412.03189 85.238694 
L 414.753472 80.37145 
L 415.433868 130.031862 
L 417.475055 129.538602 
L 418.835846 129.458386 
L 420.196637 129.795023 
L 421.557428 130.440666 
L 422.918219 131.538843 
L 429.722176 138.543734 
L 431.082967 140.18574 
L 433.124154 143.040598 
L 435.16534 144.984443 
L 436.526132 145.59945 
L 437.886923 146.250593 
L 438.567319 100.082926 
L 439.247714 100.941454 
L 439.92811 102.083073 
L 440.608505 102.830182 
L 441.288901 98.158625 
L 441.969297 96.770762 
L 442.649692 95.862987 
L 444.010483 94.719248 
L 444.690879 94.335001 
L 446.05167 92.906456 
L 447.412461 91.692931 
L 452.855626 90.670514 
L 456.257604 89.340534 
L 458.979187 87.737735 
L 463.741956 84.529268 
L 466.463539 81.820073 
L 469.185121 77.097546 
L 471.906703 73.5396 
L 475.989077 69.510794 
L 477.349868 68.265328 
L 480.071451 57.657674 
L 480.751846 113.780985 
L 482.793033 110.738102 
L 484.153824 109.635215 
L 484.83422 109.982475 
L 485.514616 110.799777 
L 486.875407 113.293066 
L 487.555802 114.784817 
L 488.916594 118.942021 
L 489.596989 121.187025 
L 490.957781 124.213721 
L 492.318572 126.905476 
L 493.679363 129.98922 
L 495.040154 134.363373 
L 495.72055 135.780786 
L 496.400945 136.681258 
L 497.081341 136.960548 
L 497.761737 137.052676 
L 499.122528 137.953354 
L 499.802923 137.935913 
L 500.483319 138.283356 
L 503.204902 139.100883 
L 503.885297 86.261753 
L 504.565693 87.247092 
L 505.246088 88.814502 
L 505.926484 89.774181 
L 506.60688 84.17829 
L 507.287275 82.585814 
L 507.967671 81.616918 
L 508.648066 80.96275 
L 509.328462 80.500076 
L 510.008858 80.172299 
L 511.369649 79.972692 
L 512.73044 80.087607 
L 514.091231 80.281894 
L 516.132418 80.664228 
L 518.173605 80.866911 
L 520.895187 80.440261 
L 523.61677 79.523257 
L 526.338352 77.896554 
L 526.338352 77.896554 
" clip-path="url(#p759ba1adbe)" style="fill: none; stroke: #ff7f0e; stroke-opacity: 0.85; stroke-width: 1.5; stroke-linecap: square"/>
   </g>
   <g id="line2d_35">
    <path d="M 69.792898 113.452351 
L 70.473293 142.189848 
L 71.153689 117.950674 
L 71.834085 133.582212 
L 72.51448 129.023394 
L 73.194876 128.361105 
L 74.555667 127.486451 
L 75.916458 127.07778 
L 77.277249 126.817885 
L 82.720414 126.715422 
L 84.081206 126.461112 
L 84.761601 123.647506 
L 85.441997 123.526457 
L 86.122392 117.440531 
L 87.483184 118.344917 
L 88.163579 87.465425 
L 88.843975 100.320315 
L 89.52437 92.535851 
L 90.204766 58.929625 
L 90.885162 70.459811 
L 91.565557 66.71055 
L 92.926348 72.896248 
L 94.28714 79.174694 
L 94.967535 82.526593 
L 97.689118 92.547547 
L 99.049909 96.391297 
L 99.730305 98.96495 
L 100.4107 99.983856 
L 101.771491 103.704537 
L 103.132283 109.692959 
L 104.493074 116.59346 
L 105.173469 117.079926 
L 105.853865 119.107726 
L 106.534261 125.686704 
L 107.895052 127.811007 
L 109.255843 129.468739 
L 109.936239 134.767499 
L 110.616634 233.998125 
L 111.29703 215.623435 
L 111.977426 173.151275 
L 112.657821 170.485147 
L 113.338217 169.626646 
L 114.018612 166.995698 
L 114.699008 162.666932 
L 116.059799 157.571149 
L 117.42059 152.423987 
L 118.100986 150.079167 
L 118.781382 163.884633 
L 120.142173 161.752624 
L 124.224547 156.458042 
L 126.946129 153.927892 
L 128.987316 152.236429 
L 131.708898 150.756425 
L 134.430481 149.819032 
L 136.471668 150.609002 
L 137.152063 150.864355 
L 139.873646 151.21861 
L 142.595228 150.629549 
L 145.31681 152.607646 
L 148.038393 153.328629 
L 149.399184 153.166396 
L 150.07958 150.420128 
L 150.759975 150.339319 
L 151.440371 144.300715 
L 152.801162 145.263217 
L 153.481558 114.861271 
L 154.161953 119.258013 
L 154.842349 112.306618 
L 155.522745 79.745726 
L 156.20314 91.935303 
L 156.883536 88.460578 
L 157.563931 92.268653 
L 160.96591 107.818216 
L 164.367888 120.652995 
L 165.048283 123.499483 
L 166.409074 126.910627 
L 167.08947 128.479416 
L 169.130657 133.866497 
L 169.811052 135.513492 
L 171.171844 137.805609 
L 171.852239 144.76495 
L 172.532635 145.753332 
L 173.893426 146.782783 
L 174.573822 147.020231 
L 175.254217 151.893124 
L 175.934613 233.998125 
L 176.615009 233.998125 
L 177.295404 204.86423 
L 177.9758 192.140337 
L 178.656195 191.123492 
L 179.336591 187.258291 
L 180.016987 182.55927 
L 180.697382 179.586368 
L 182.058173 175.363965 
L 183.418965 171.474154 
L 184.09936 185.301137 
L 185.460151 183.261731 
L 186.140547 182.363774 
L 188.181734 178.668029 
L 189.542525 176.562858 
L 192.264108 172.734737 
L 194.305294 169.547758 
L 197.707272 165.759381 
L 199.748459 163.713266 
L 200.428855 163.763215 
L 201.109251 139.203333 
L 201.789646 160.509759 
L 202.470042 144.827253 
L 203.150437 148.890157 
L 203.830833 149.119499 
L 205.191624 149.128672 
L 207.232811 147.611981 
L 207.913207 147.056693 
L 210.634789 141.786864 
L 213.356372 138.571951 
L 214.717163 133.732551 
L 215.397558 128.602004 
L 216.077954 126.124517 
L 216.75835 117.069255 
L 218.119141 111.935547 
L 218.799536 89.840456 
L 219.479932 114.810464 
L 220.160328 113.685033 
L 220.840723 86.563796 
L 221.521119 85.707348 
L 222.201514 85.454133 
L 222.88191 84.518596 
L 224.242701 83.269479 
L 224.923097 83.544626 
L 226.283888 84.267993 
L 226.964284 84.559155 
L 227.644679 85.044104 
L 228.325075 85.229932 
L 229.005471 85.53337 
L 229.685866 86.227508 
L 230.366262 87.885347 
L 231.727053 88.470256 
L 232.407449 88.71252 
L 235.129031 91.697086 
L 235.809427 90.5145 
L 236.489822 91.068047 
L 237.170218 96.960665 
L 237.850613 97.630227 
L 239.211405 99.645869 
L 239.8918 101.275395 
L 240.572196 107.623035 
L 241.252592 150.637339 
L 241.932987 151.584672 
L 242.613383 107.910419 
L 243.293778 107.610633 
L 244.65457 104.313954 
L 245.334965 98.268734 
L 246.015361 95.441579 
L 247.376152 91.130865 
L 248.736943 87.740834 
L 249.417339 102.386927 
L 250.77813 101.516758 
L 251.458526 101.220282 
L 253.499713 99.48525 
L 254.180108 98.980793 
L 257.582086 95.63728 
L 259.623273 93.241813 
L 262.344855 90.825639 
L 265.066438 90.016959 
L 267.107625 90.450448 
L 267.78802 90.590984 
L 275.952768 90.231292 
L 278.67435 89.143566 
L 280.035141 87.837958 
L 280.715537 84.468372 
L 281.395933 83.809007 
L 282.076328 75.225255 
L 283.437119 71.107566 
L 284.117515 49.408502 
L 284.797911 87.819257 
L 285.478306 87.719201 
L 286.158702 61.630215 
L 286.839097 62.169971 
L 287.519493 63.466447 
L 288.199889 64.11685 
L 288.880284 66.023242 
L 289.56068 68.268949 
L 291.601867 77.342911 
L 295.003845 90.239963 
L 295.68424 93.830817 
L 297.045032 97.960843 
L 298.405823 101.924682 
L 299.766614 105.965183 
L 300.44701 107.814729 
L 301.127405 107.717539 
L 301.807801 109.077013 
L 302.488196 164.143709 
L 303.168592 164.620937 
L 304.529383 165.078307 
L 305.209779 165.020582 
L 305.890175 164.836318 
L 306.57057 164.935083 
L 307.250966 164.47496 
L 307.931361 123.276727 
L 308.611757 122.569114 
L 309.292153 121.236865 
L 309.972548 120.689868 
L 310.652944 115.296947 
L 312.694131 108.496598 
L 314.054922 104.943387 
L 314.735317 116.082539 
L 315.415713 116.070052 
L 316.776504 116.374458 
L 318.137296 115.505614 
L 319.498087 114.828427 
L 322.219669 111.971021 
L 324.941252 109.333267 
L 327.662834 108.883395 
L 330.384416 109.691679 
L 332.425603 110.274194 
L 333.786395 110.547319 
L 335.827581 110.819244 
L 340.590351 112.526821 
L 345.35312 114.19835 
L 346.033516 111.822168 
L 346.713911 112.140406 
L 347.394307 106.057306 
L 348.755098 106.959353 
L 349.435494 87.923302 
L 350.115889 112.250737 
L 350.796285 112.512689 
L 351.47668 86.766126 
L 352.157076 87.277736 
L 352.837472 88.539019 
L 353.517867 89.114935 
L 354.878658 90.624077 
L 356.23945 92.726091 
L 357.600241 95.222064 
L 360.321823 101.844124 
L 361.002219 104.744387 
L 363.043406 109.348936 
L 364.404197 112.012297 
L 365.764988 114.050474 
L 366.445384 112.848703 
L 367.125779 113.334855 
L 367.806175 119.22478 
L 368.486571 119.709517 
L 369.847362 120.961761 
L 370.527758 121.970503 
L 371.208153 127.444801 
L 371.888549 169.730032 
L 372.568944 170.171576 
L 373.24934 138.154847 
L 373.929736 137.618357 
L 374.610131 136.389358 
L 375.290527 134.566497 
L 375.970922 129.180901 
L 376.651318 126.447345 
L 378.012109 122.34366 
L 379.3729 118.96011 
L 380.053296 133.458373 
L 381.414087 132.554777 
L 382.094483 132.265967 
L 384.13567 128.37933 
L 385.496461 125.813057 
L 388.218043 120.58307 
L 390.25923 117.036969 
L 394.341604 105.742763 
L 395.702395 101.766473 
L 398.423978 95.665678 
L 401.14556 92.622921 
L 407.26912 87.555858 
L 409.310307 86.358781 
L 412.03189 85.229612 
L 414.753472 80.36306 
L 415.433868 130.023165 
L 417.475055 129.530384 
L 418.835846 129.450469 
L 420.196637 129.7874 
L 421.557428 130.433333 
L 422.918219 131.531792 
L 429.722176 138.537961 
L 431.082967 140.180199 
L 433.124154 143.035388 
L 435.16534 144.979534 
L 436.526132 145.594727 
L 437.886923 146.246045 
L 438.567319 100.078684 
L 439.247714 100.937294 
L 439.92811 102.079002 
L 440.608505 102.826196 
L 441.288901 98.154662 
L 441.969297 96.766848 
L 442.649692 95.859134 
L 444.010483 94.715525 
L 444.690879 94.331343 
L 446.05167 92.902933 
L 447.412461 91.689539 
L 452.855626 90.667595 
L 456.257604 89.337882 
L 458.979187 87.73528 
L 463.741956 84.527124 
L 466.463539 81.81809 
L 469.185121 77.095716 
L 471.906703 73.537909 
L 475.989077 69.509291 
L 477.349868 68.263883 
L 480.071451 57.656349 
L 480.751846 113.7796 
L 482.793033 110.736797 
L 484.153824 109.63396 
L 484.83422 109.981245 
L 485.514616 110.798573 
L 486.875407 113.291913 
L 487.555802 114.783689 
L 488.916594 118.940942 
L 489.596989 121.185971 
L 490.957781 124.212711 
L 492.318572 126.904507 
L 493.679363 129.988293 
L 495.040154 134.362487 
L 495.72055 135.779915 
L 496.400945 136.680401 
L 497.081341 136.959706 
L 497.761737 137.051849 
L 499.122528 137.952556 
L 499.802923 137.935129 
L 500.483319 138.282587 
L 503.204902 139.100168 
L 503.885297 86.261091 
L 504.565693 87.246443 
L 505.246088 88.813867 
L 505.926484 89.77356 
L 506.60688 84.17767 
L 507.287275 82.585201 
L 507.967671 81.616314 
L 508.648066 80.962155 
L 509.328462 80.499492 
L 510.008858 80.171725 
L 511.369649 79.972138 
L 512.73044 80.087073 
L 514.091231 80.281379 
L 516.132418 80.663742 
L 518.173605 80.866451 
L 520.895187 80.439835 
L 523.61677 79.522862 
L 526.338352 77.896189 
L 526.338352 77.896189 
" clip-path="url(#p759ba1adbe)" style="fill: none; stroke: #2ca02c; stroke-opacity: 0.85; stroke-width: 1.5; stroke-linecap: square"/>
   </g>
   <g id="patch_3">
    <path d="M 46.965625 244.078125 
L 46.965625 22.318125 
" style="fill: none; stroke: #000000; stroke-width: 0.8; stroke-linejoin: miter; stroke-linecap: square"/>
   </g>
   <g id="patch_4">
    <path d="M 549.165625 244.078125 
L 549.165625 22.318125 
" style="fill: none; stroke: #000000; stroke-width: 0.8; stroke-linejoin: miter; stroke-linecap: square"/>
   </g>
   <g id="patch_5">
    <path d="M 46.965625 244.078125 
L 549.165625 244.078125 
" style="fill: none; stroke: #000000; stroke-width: 0.8; stroke-linejoin: miter; stroke-linecap: square"/>
   </g>
   <g id="patch_6">
    <path d="M 46.965625 22.318125 
L 549.165625 22.318125 
" style="fill: none; stroke: #000000; stroke-width: 0.8; stroke-linejoin: miter; stroke-linecap: square"/>
   </g>
   <g id="text_18">
    <!-- SIMULATION-ONLY RESEARCH | A04 IS NOT A TRANSIENT-VALIDATED PHYSICS CHAMPION | ILLUSTRATIVE COSTS | NO BACNET COMMAND AUTHORITY -->
    <g style="fill: #444444" transform="translate(51.987625 16.232456) scale(0.07 -0.07)">
     <defs>
      <path id="DejaVuSans-53" d="M 3425 4513 
L 3425 3897 
Q 3066 4069 2747 4153 
Q 2428 4238 2131 4238 
Q 1616 4238 1336 4038 
Q 1056 3838 1056 3469 
Q 1056 3159 1242 3001 
Q 1428 2844 1947 2747 
L 2328 2669 
Q 3034 2534 3370 2195 
Q 3706 1856 3706 1288 
Q 3706 609 3251 259 
Q 2797 -91 1919 -91 
Q 1588 -91 1214 -16 
Q 841 59 441 206 
L 441 856 
Q 825 641 1194 531 
Q 1563 422 1919 422 
Q 2459 422 2753 634 
Q 3047 847 3047 1241 
Q 3047 1584 2836 1778 
Q 2625 1972 2144 2069 
L 1759 2144 
Q 1053 2284 737 2584 
Q 422 2884 422 3419 
Q 422 4038 858 4394 
Q 1294 4750 2059 4750 
Q 2388 4750 2728 4690 
Q 3069 4631 3425 4513 
z
" transform="scale(0.015625)"/>
      <path id="DejaVuSans-49" d="M 628 4666 
L 1259 4666 
L 1259 0 
L 628 0 
L 628 4666 
z
" transform="scale(0.015625)"/>
      <path id="DejaVuSans-4d" d="M 628 4666 
L 1569 4666 
L 2759 1491 
L 3956 4666 
L 4897 4666 
L 4897 0 
L 4281 0 
L 4281 4097 
L 3078 897 
L 2444 897 
L 1241 4097 
L 1241 0 
L 628 0 
L 628 4666 
z
" transform="scale(0.015625)"/>
      <path id="DejaVuSans-55" d="M 556 4666 
L 1191 4666 
L 1191 1831 
Q 1191 1081 1462 751 
Q 1734 422 2344 422 
Q 2950 422 3222 751 
Q 3494 1081 3494 1831 
L 3494 4666 
L 4128 4666 
L 4128 1753 
Q 4128 841 3676 375 
Q 3225 -91 2344 -91 
Q 1459 -91 1007 375 
Q 556 841 556 1753 
L 556 4666 
z
" transform="scale(0.015625)"/>
      <path id="DejaVuSans-4c" d="M 628 4666 
L 1259 4666 
L 1259 531 
L 3531 531 
L 3531 0 
L 628 0 
L 628 4666 
z
" transform="scale(0.015625)"/>
      <path id="DejaVuSans-41" d="M 2188 4044 
L 1331 1722 
L 3047 1722 
L 2188 4044 
z
M 1831 4666 
L 2547 4666 
L 4325 0 
L 3669 0 
L 3244 1197 
L 1141 1197 
L 716 0 
L 50 0 
L 1831 4666 
z
" transform="scale(0.015625)"/>
      <path id="DejaVuSans-54" d="M -19 4666 
L 3928 4666 
L 3928 4134 
L 2272 4134 
L 2272 0 
L 1638 0 
L 1638 4134 
L -19 4134 
L -19 4666 
z
" transform="scale(0.015625)"/>
      <path id="DejaVuSans-4f" d="M 2522 4238 
Q 1834 4238 1429 3725 
Q 1025 3213 1025 2328 
Q 1025 1447 1429 934 
Q 1834 422 2522 422 
Q 3209 422 3611 934 
Q 4013 1447 4013 2328 
Q 4013 3213 3611 3725 
Q 3209 4238 2522 4238 
z
M 2522 4750 
Q 3503 4750 4090 4092 
Q 4678 3434 4678 2328 
Q 4678 1225 4090 567 
Q 3503 -91 2522 -91 
Q 1538 -91 948 565 
Q 359 1222 359 2328 
Q 359 3434 948 4092 
Q 1538 4750 2522 4750 
z
" transform="scale(0.015625)"/>
      <path id="DejaVuSans-4e" d="M 628 4666 
L 1478 4666 
L 3547 763 
L 3547 4666 
L 4159 4666 
L 4159 0 
L 3309 0 
L 1241 3903 
L 1241 0 
L 628 0 
L 628 4666 
z
" transform="scale(0.015625)"/>
      <path id="DejaVuSans-2d" d="M 313 2009 
L 1997 2009 
L 1997 1497 
L 313 1497 
L 313 2009 
z
" transform="scale(0.015625)"/>
      <path id="DejaVuSans-59" d="M -13 4666 
L 666 4666 
L 1959 2747 
L 3244 4666 
L 3922 4666 
L 2272 2222 
L 2272 0 
L 1638 0 
L 1638 2222 
L -13 4666 
z
" transform="scale(0.015625)"/>
      <path id="DejaVuSans-20" transform="scale(0.015625)"/>
      <path id="DejaVuSans-52" d="M 2841 2188 
Q 3044 2119 3236 1894 
Q 3428 1669 3622 1275 
L 4263 0 
L 3584 0 
L 2988 1197 
Q 2756 1666 2539 1819 
Q 2322 1972 1947 1972 
L 1259 1972 
L 1259 0 
L 628 0 
L 628 4666 
L 2053 4666 
Q 2853 4666 3247 4331 
Q 3641 3997 3641 3322 
Q 3641 2881 3436 2590 
Q 3231 2300 2841 2188 
z
M 1259 4147 
L 1259 2491 
L 2053 2491 
Q 2509 2491 2742 2702 
Q 2975 2913 2975 3322 
Q 2975 3731 2742 3939 
Q 2509 4147 2053 4147 
L 1259 4147 
z
" transform="scale(0.015625)"/>
      <path id="DejaVuSans-45" d="M 628 4666 
L 3578 4666 
L 3578 4134 
L 1259 4134 
L 1259 2753 
L 3481 2753 
L 3481 2222 
L 1259 2222 
L 1259 531 
L 3634 531 
L 3634 0 
L 628 0 
L 628 4666 
z
" transform="scale(0.015625)"/>
      <path id="DejaVuSans-43" d="M 4122 4306 
L 4122 3641 
Q 3803 3938 3442 4084 
Q 3081 4231 2675 4231 
Q 1875 4231 1450 3742 
Q 1025 3253 1025 2328 
Q 1025 1406 1450 917 
Q 1875 428 2675 428 
Q 3081 428 3442 575 
Q 3803 722 4122 1019 
L 4122 359 
Q 3791 134 3420 21 
Q 3050 -91 2638 -91 
Q 1578 -91 968 557 
Q 359 1206 359 2328 
Q 359 3453 968 4101 
Q 1578 4750 2638 4750 
Q 3056 4750 3426 4639 
Q 3797 4528 4122 4306 
z
" transform="scale(0.015625)"/>
      <path id="DejaVuSans-48" d="M 628 4666 
L 1259 4666 
L 1259 2753 
L 3553 2753 
L 3553 4666 
L 4184 4666 
L 4184 0 
L 3553 0 
L 3553 2222 
L 1259 2222 
L 1259 0 
L 628 0 
L 628 4666 
z
" transform="scale(0.015625)"/>
      <path id="DejaVuSans-7c" d="M 1344 4891 
L 1344 -1509 
L 813 -1509 
L 813 4891 
L 1344 4891 
z
" transform="scale(0.015625)"/>
      <path id="DejaVuSans-56" d="M 1831 0 
L 50 4666 
L 709 4666 
L 2188 738 
L 3669 4666 
L 4325 4666 
L 2547 0 
L 1831 0 
z
" transform="scale(0.015625)"/>
      <path id="DejaVuSans-44" d="M 1259 4147 
L 1259 519 
L 2022 519 
Q 2988 519 3436 956 
Q 3884 1394 3884 2338 
Q 3884 3275 3436 3711 
Q 2988 4147 2022 4147 
L 1259 4147 
z
M 628 4666 
L 1925 4666 
Q 3281 4666 3915 4102 
Q 4550 3538 4550 2338 
Q 4550 1131 3912 565 
Q 3275 0 1925 0 
L 628 0 
L 628 4666 
z
" transform="scale(0.015625)"/>
      <path id="DejaVuSans-50" d="M 1259 4147 
L 1259 2394 
L 2053 2394 
Q 2494 2394 2734 2622 
Q 2975 2850 2975 3272 
Q 2975 3691 2734 3919 
Q 2494 4147 2053 4147 
L 1259 4147 
z
M 628 4666 
L 2053 4666 
Q 2838 4666 3239 4311 
Q 3641 3956 3641 3272 
Q 3641 2581 3239 2228 
Q 2838 1875 2053 1875 
L 1259 1875 
L 1259 0 
L 628 0 
L 628 4666 
z
" transform="scale(0.015625)"/>
      <path id="DejaVuSans-42" d="M 1259 2228 
L 1259 519 
L 2272 519 
Q 2781 519 3026 730 
Q 3272 941 3272 1375 
Q 3272 1813 3026 2020 
Q 2781 2228 2272 2228 
L 1259 2228 
z
M 1259 4147 
L 1259 2741 
L 2194 2741 
Q 2656 2741 2882 2914 
Q 3109 3088 3109 3444 
Q 3109 3797 2882 3972 
Q 2656 4147 2194 4147 
L 1259 4147 
z
M 628 4666 
L 2241 4666 
Q 2963 4666 3353 4366 
Q 3744 4066 3744 3513 
Q 3744 3084 3544 2831 
Q 3344 2578 2956 2516 
Q 3422 2416 3680 2098 
Q 3938 1781 3938 1306 
Q 3938 681 3513 340 
Q 3088 0 2303 0 
L 628 0 
L 628 4666 
z
" transform="scale(0.015625)"/>
     </defs>
     <use xlink:href="#DejaVuSans-53"/>
     <use xlink:href="#DejaVuSans-49" x="63.476562"/>
     <use xlink:href="#DejaVuSans-4d" x="92.96875"/>
     <use xlink:href="#DejaVuSans-55" x="179.248047"/>
     <use xlink:href="#DejaVuSans-4c" x="252.441406"/>
     <use xlink:href="#DejaVuSans-41" x="310.404297"/>
     <use xlink:href="#DejaVuSans-54" x="371.0625"/>
     <use xlink:href="#DejaVuSans-49" x="432.146484"/>
     <use xlink:href="#DejaVuSans-4f" x="461.638672"/>
     <use xlink:href="#DejaVuSans-4e" x="540.349609"/>
     <use xlink:href="#DejaVuSans-2d" x="615.154297"/>
     <use xlink:href="#DejaVuSans-4f" x="653.988281"/>
     <use xlink:href="#DejaVuSans-4e" x="732.699219"/>
     <use xlink:href="#DejaVuSans-4c" x="807.503906"/>
     <use xlink:href="#DejaVuSans-59" x="849.966797"/>
     <use xlink:href="#DejaVuSans-20" x="911.050781"/>
     <use xlink:href="#DejaVuSans-52" x="942.837891"/>
     <use xlink:href="#DejaVuSans-45" x="1012.320312"/>
     <use xlink:href="#DejaVuSans-53" x="1075.503906"/>
     <use xlink:href="#DejaVuSans-45" x="1138.980469"/>
     <use xlink:href="#DejaVuSans-41" x="1202.164062"/>
     <use xlink:href="#DejaVuSans-52" x="1270.572266"/>
     <use xlink:href="#DejaVuSans-43" x="1335.054688"/>
     <use xlink:href="#DejaVuSans-48" x="1404.878906"/>
     <use xlink:href="#DejaVuSans-20" x="1480.074219"/>
     <use xlink:href="#DejaVuSans-7c" x="1511.861328"/>
     <use xlink:href="#DejaVuSans-20" x="1545.552734"/>
     <use xlink:href="#DejaVuSans-41" x="1577.339844"/>
     <use xlink:href="#DejaVuSans-30" x="1645.748047"/>
     <use xlink:href="#DejaVuSans-34" x="1709.371094"/>
     <use xlink:href="#DejaVuSans-20" x="1772.994141"/>
     <use xlink:href="#DejaVuSans-49" x="1804.78125"/>
     <use xlink:href="#DejaVuSans-53" x="1834.273438"/>
     <use xlink:href="#DejaVuSans-20" x="1897.75"/>
     <use xlink:href="#DejaVuSans-4e" x="1929.537109"/>
     <use xlink:href="#DejaVuSans-4f" x="2004.341797"/>
     <use xlink:href="#DejaVuSans-54" x="2083.052734"/>
     <use xlink:href="#DejaVuSans-20" x="2144.136719"/>
     <use xlink:href="#DejaVuSans-41" x="2175.923828"/>
     <use xlink:href="#DejaVuSans-20" x="2244.332031"/>
     <use xlink:href="#DejaVuSans-54" x="2276.119141"/>
     <use xlink:href="#DejaVuSans-52" x="2337.203125"/>
     <use xlink:href="#DejaVuSans-41" x="2402.685547"/>
     <use xlink:href="#DejaVuSans-4e" x="2471.09375"/>
     <use xlink:href="#DejaVuSans-53" x="2545.898438"/>
     <use xlink:href="#DejaVuSans-49" x="2609.375"/>
     <use xlink:href="#DejaVuSans-45" x="2638.867188"/>
     <use xlink:href="#DejaVuSans-4e" x="2702.050781"/>
     <use xlink:href="#DejaVuSans-54" x="2776.855469"/>
     <use xlink:href="#DejaVuSans-2d" x="2828.814453"/>
     <use xlink:href="#DejaVuSans-56" x="2859.023438"/>
     <use xlink:href="#DejaVuSans-41" x="2921.056641"/>
     <use xlink:href="#DejaVuSans-4c" x="2989.464844"/>
     <use xlink:href="#DejaVuSans-49" x="3045.177734"/>
     <use xlink:href="#DejaVuSans-44" x="3074.669922"/>
     <use xlink:href="#DejaVuSans-41" x="3149.921875"/>
     <use xlink:href="#DejaVuSans-54" x="3210.580078"/>
     <use xlink:href="#DejaVuSans-45" x="3271.664062"/>
     <use xlink:href="#DejaVuSans-44" x="3334.847656"/>
     <use xlink:href="#DejaVuSans-20" x="3411.849609"/>
     <use xlink:href="#DejaVuSans-50" x="3443.636719"/>
     <use xlink:href="#DejaVuSans-48" x="3503.939453"/>
     <use xlink:href="#DejaVuSans-59" x="3579.134766"/>
     <use xlink:href="#DejaVuSans-53" x="3640.21875"/>
     <use xlink:href="#DejaVuSans-49" x="3703.695312"/>
     <use xlink:href="#DejaVuSans-43" x="3733.1875"/>
     <use xlink:href="#DejaVuSans-53" x="3803.011719"/>
     <use xlink:href="#DejaVuSans-20" x="3866.488281"/>
     <use xlink:href="#DejaVuSans-43" x="3898.275391"/>
     <use xlink:href="#DejaVuSans-48" x="3968.099609"/>
     <use xlink:href="#DejaVuSans-41" x="4043.294922"/>
     <use xlink:href="#DejaVuSans-4d" x="4111.703125"/>
     <use xlink:href="#DejaVuSans-50" x="4197.982422"/>
     <use xlink:href="#DejaVuSans-49" x="4258.285156"/>
     <use xlink:href="#DejaVuSans-4f" x="4287.777344"/>
     <use xlink:href="#DejaVuSans-4e" x="4366.488281"/>
     <use xlink:href="#DejaVuSans-20" x="4441.292969"/>
     <use xlink:href="#DejaVuSans-7c" x="4473.080078"/>
     <use xlink:href="#DejaVuSans-20" x="4506.771484"/>
     <use xlink:href="#DejaVuSans-49" x="4538.558594"/>
     <use xlink:href="#DejaVuSans-4c" x="4568.050781"/>
     <use xlink:href="#DejaVuSans-4c" x="4623.763672"/>
     <use xlink:href="#DejaVuSans-55" x="4674.476562"/>
     <use xlink:href="#DejaVuSans-53" x="4747.669922"/>
     <use xlink:href="#DejaVuSans-54" x="4811.146484"/>
     <use xlink:href="#DejaVuSans-52" x="4872.230469"/>
     <use xlink:href="#DejaVuSans-41" x="4937.712891"/>
     <use xlink:href="#DejaVuSans-54" x="4998.371094"/>
     <use xlink:href="#DejaVuSans-49" x="5059.455078"/>
     <use xlink:href="#DejaVuSans-56" x="5088.947266"/>
     <use xlink:href="#DejaVuSans-45" x="5157.355469"/>
     <use xlink:href="#DejaVuSans-20" x="5220.539062"/>
     <use xlink:href="#DejaVuSans-43" x="5252.326172"/>
     <use xlink:href="#DejaVuSans-4f" x="5322.150391"/>
     <use xlink:href="#DejaVuSans-53" x="5400.861328"/>
     <use xlink:href="#DejaVuSans-54" x="5464.337891"/>
     <use xlink:href="#DejaVuSans-53" x="5525.421875"/>
     <use xlink:href="#DejaVuSans-20" x="5588.898438"/>
     <use xlink:href="#DejaVuSans-7c" x="5620.685547"/>
     <use xlink:href="#DejaVuSans-20" x="5654.376953"/>
     <use xlink:href="#DejaVuSans-4e" x="5686.164062"/>
     <use xlink:href="#DejaVuSans-4f" x="5760.96875"/>
     <use xlink:href="#DejaVuSans-20" x="5839.679688"/>
     <use xlink:href="#DejaVuSans-42" x="5871.466797"/>
     <use xlink:href="#DejaVuSans-41" x="5940.070312"/>
     <use xlink:href="#DejaVuSans-43" x="6006.728516"/>
     <use xlink:href="#DejaVuSans-4e" x="6076.552734"/>
     <use xlink:href="#DejaVuSans-45" x="6151.357422"/>
     <use xlink:href="#DejaVuSans-54" x="6214.541016"/>
     <use xlink:href="#DejaVuSans-20" x="6275.625"/>
     <use xlink:href="#DejaVuSans-43" x="6307.412109"/>
     <use xlink:href="#DejaVuSans-4f" x="6377.236328"/>
     <use xlink:href="#DejaVuSans-4d" x="6455.947266"/>
     <use xlink:href="#DejaVuSans-4d" x="6542.226562"/>
     <use xlink:href="#DejaVuSans-41" x="6628.505859"/>
     <use xlink:href="#DejaVuSans-4e" x="6696.914062"/>
     <use xlink:href="#DejaVuSans-44" x="6771.71875"/>
     <use xlink:href="#DejaVuSans-20" x="6848.720703"/>
     <use xlink:href="#DejaVuSans-41" x="6880.507812"/>
     <use xlink:href="#DejaVuSans-55" x="6948.916016"/>
     <use xlink:href="#DejaVuSans-54" x="7022.109375"/>
     <use xlink:href="#DejaVuSans-48" x="7083.193359"/>
     <use xlink:href="#DejaVuSans-4f" x="7158.388672"/>
     <use xlink:href="#DejaVuSans-52" x="7237.099609"/>
     <use xlink:href="#DejaVuSans-49" x="7306.582031"/>
     <use xlink:href="#DejaVuSans-54" x="7336.074219"/>
     <use xlink:href="#DejaVuSans-59" x="7397.158203"/>
    </g>
   </g>
   <g id="text_19">
    <!-- Coldest-week facility-kW profiles (2026-01-12 week) -->
    <g transform="translate(141.151563 16.318125) scale(0.12 -0.12)">
     <defs>
      <path id="DejaVuSans-6f" d="M 1959 3097 
Q 1497 3097 1228 2736 
Q 959 2375 959 1747 
Q 959 1119 1226 758 
Q 1494 397 1959 397 
Q 2419 397 2687 759 
Q 2956 1122 2956 1747 
Q 2956 2369 2687 2733 
Q 2419 3097 1959 3097 
z
M 1959 3584 
Q 2709 3584 3137 3096 
Q 3566 2609 3566 1747 
Q 3566 888 3137 398 
Q 2709 -91 1959 -91 
Q 1206 -91 779 398 
Q 353 888 353 1747 
Q 353 2609 779 3096 
Q 1206 3584 1959 3584 
z
" transform="scale(0.015625)"/>
      <path id="DejaVuSans-6c" d="M 603 4863 
L 1178 4863 
L 1178 0 
L 603 0 
L 603 4863 
z
" transform="scale(0.015625)"/>
      <path id="DejaVuSans-64" d="M 2906 2969 
L 2906 4863 
L 3481 4863 
L 3481 0 
L 2906 0 
L 2906 525 
Q 2725 213 2448 61 
Q 2172 -91 1784 -91 
Q 1150 -91 751 415 
Q 353 922 353 1747 
Q 353 2572 751 3078 
Q 1150 3584 1784 3584 
Q 2172 3584 2448 3432 
Q 2725 3281 2906 2969 
z
M 947 1747 
Q 947 1113 1208 752 
Q 1469 391 1925 391 
Q 2381 391 2643 752 
Q 2906 1113 2906 1747 
Q 2906 2381 2643 2742 
Q 2381 3103 1925 3103 
Q 1469 3103 1208 2742 
Q 947 2381 947 1747 
z
" transform="scale(0.015625)"/>
      <path id="DejaVuSans-65" d="M 3597 1894 
L 3597 1613 
L 953 1613 
Q 991 1019 1311 708 
Q 1631 397 2203 397 
Q 2534 397 2845 478 
Q 3156 559 3463 722 
L 3463 178 
Q 3153 47 2828 -22 
Q 2503 -91 2169 -91 
Q 1331 -91 842 396 
Q 353 884 353 1716 
Q 353 2575 817 3079 
Q 1281 3584 2069 3584 
Q 2775 3584 3186 3129 
Q 3597 2675 3597 1894 
z
M 3022 2063 
Q 3016 2534 2758 2815 
Q 2500 3097 2075 3097 
Q 1594 3097 1305 2825 
Q 1016 2553 972 2059 
L 3022 2063 
z
" transform="scale(0.015625)"/>
      <path id="DejaVuSans-73" d="M 2834 3397 
L 2834 2853 
Q 2591 2978 2328 3040 
Q 2066 3103 1784 3103 
Q 1356 3103 1142 2972 
Q 928 2841 928 2578 
Q 928 2378 1081 2264 
Q 1234 2150 1697 2047 
L 1894 2003 
Q 2506 1872 2764 1633 
Q 3022 1394 3022 966 
Q 3022 478 2636 193 
Q 2250 -91 1575 -91 
Q 1294 -91 989 -36 
Q 684 19 347 128 
L 347 722 
Q 666 556 975 473 
Q 1284 391 1588 391 
Q 1994 391 2212 530 
Q 2431 669 2431 922 
Q 2431 1156 2273 1281 
Q 2116 1406 1581 1522 
L 1381 1569 
Q 847 1681 609 1914 
Q 372 2147 372 2553 
Q 372 3047 722 3315 
Q 1072 3584 1716 3584 
Q 2034 3584 2315 3537 
Q 2597 3491 2834 3397 
z
" transform="scale(0.015625)"/>
      <path id="DejaVuSans-74" d="M 1172 4494 
L 1172 3500 
L 2356 3500 
L 2356 3053 
L 1172 3053 
L 1172 1153 
Q 1172 725 1289 603 
Q 1406 481 1766 481 
L 2356 481 
L 2356 0 
L 1766 0 
Q 1100 0 847 248 
Q 594 497 594 1153 
L 594 3053 
L 172 3053 
L 172 3500 
L 594 3500 
L 594 4494 
L 1172 4494 
z
" transform="scale(0.015625)"/>
      <path id="DejaVuSans-77" d="M 269 3500 
L 844 3500 
L 1563 769 
L 2278 3500 
L 2956 3500 
L 3675 769 
L 4391 3500 
L 4966 3500 
L 4050 0 
L 3372 0 
L 2619 2869 
L 1863 0 
L 1184 0 
L 269 3500 
z
" transform="scale(0.015625)"/>
      <path id="DejaVuSans-66" d="M 2375 4863 
L 2375 4384 
L 1825 4384 
Q 1516 4384 1395 4259 
Q 1275 4134 1275 3809 
L 1275 3500 
L 2222 3500 
L 2222 3053 
L 1275 3053 
L 1275 0 
L 697 0 
L 697 3053 
L 147 3053 
L 147 3500 
L 697 3500 
L 697 3744 
Q 697 4328 969 4595 
Q 1241 4863 1831 4863 
L 2375 4863 
z
" transform="scale(0.015625)"/>
      <path id="DejaVuSans-61" d="M 2194 1759 
Q 1497 1759 1228 1600 
Q 959 1441 959 1056 
Q 959 750 1161 570 
Q 1363 391 1709 391 
Q 2188 391 2477 730 
Q 2766 1069 2766 1631 
L 2766 1759 
L 2194 1759 
z
M 3341 1997 
L 3341 0 
L 2766 0 
L 2766 531 
Q 2569 213 2275 61 
Q 1981 -91 1556 -91 
Q 1019 -91 701 211 
Q 384 513 384 1019 
Q 384 1609 779 1909 
Q 1175 2209 1959 2209 
L 2766 2209 
L 2766 2266 
Q 2766 2663 2505 2880 
Q 2244 3097 1772 3097 
Q 1472 3097 1187 3025 
Q 903 2953 641 2809 
L 641 3341 
Q 956 3463 1253 3523 
Q 1550 3584 1831 3584 
Q 2591 3584 2966 3190 
Q 3341 2797 3341 1997 
z
" transform="scale(0.015625)"/>
      <path id="DejaVuSans-63" d="M 3122 3366 
L 3122 2828 
Q 2878 2963 2633 3030 
Q 2388 3097 2138 3097 
Q 1578 3097 1268 2742 
Q 959 2388 959 1747 
Q 959 1106 1268 751 
Q 1578 397 2138 397 
Q 2388 397 2633 464 
Q 2878 531 3122 666 
L 3122 134 
Q 2881 22 2623 -34 
Q 2366 -91 2075 -91 
Q 1284 -91 818 406 
Q 353 903 353 1747 
Q 353 2603 823 3093 
Q 1294 3584 2113 3584 
Q 2378 3584 2631 3529 
Q 2884 3475 3122 3366 
z
" transform="scale(0.015625)"/>
      <path id="DejaVuSans-69" d="M 603 3500 
L 1178 3500 
L 1178 0 
L 603 0 
L 603 3500 
z
M 603 4863 
L 1178 4863 
L 1178 4134 
L 603 4134 
L 603 4863 
z
" transform="scale(0.015625)"/>
      <path id="DejaVuSans-79" d="M 2059 -325 
Q 1816 -950 1584 -1140 
Q 1353 -1331 966 -1331 
L 506 -1331 
L 506 -850 
L 844 -850 
Q 1081 -850 1212 -737 
Q 1344 -625 1503 -206 
L 1606 56 
L 191 3500 
L 800 3500 
L 1894 763 
L 2988 3500 
L 3597 3500 
L 2059 -325 
z
" transform="scale(0.015625)"/>
      <path id="DejaVuSans-70" d="M 1159 525 
L 1159 -1331 
L 581 -1331 
L 581 3500 
L 1159 3500 
L 1159 2969 
Q 1341 3281 1617 3432 
Q 1894 3584 2278 3584 
Q 2916 3584 3314 3078 
Q 3713 2572 3713 1747 
Q 3713 922 3314 415 
Q 2916 -91 2278 -91 
Q 1894 -91 1617 61 
Q 1341 213 1159 525 
z
M 3116 1747 
Q 3116 2381 2855 2742 
Q 2594 3103 2138 3103 
Q 1681 3103 1420 2742 
Q 1159 2381 1159 1747 
Q 1159 1113 1420 752 
Q 1681 391 2138 391 
Q 2594 391 2855 752 
Q 3116 1113 3116 1747 
z
" transform="scale(0.015625)"/>
      <path id="DejaVuSans-72" d="M 2631 2963 
Q 2534 3019 2420 3045 
Q 2306 3072 2169 3072 
Q 1681 3072 1420 2755 
Q 1159 2438 1159 1844 
L 1159 0 
L 581 0 
L 581 3500 
L 1159 3500 
L 1159 2956 
Q 1341 3275 1631 3429 
Q 1922 3584 2338 3584 
Q 2397 3584 2469 3576 
Q 2541 3569 2628 3553 
L 2631 2963 
z
" transform="scale(0.015625)"/>
      <path id="DejaVuSans-28" d="M 1984 4856 
Q 1566 4138 1362 3434 
Q 1159 2731 1159 2009 
Q 1159 1288 1364 580 
Q 1569 -128 1984 -844 
L 1484 -844 
Q 1016 -109 783 600 
Q 550 1309 550 2009 
Q 550 2706 781 3412 
Q 1013 4119 1484 4856 
L 1984 4856 
z
" transform="scale(0.015625)"/>
      <path id="DejaVuSans-29" d="M 513 4856 
L 1013 4856 
Q 1481 4119 1714 3412 
Q 1947 2706 1947 2009 
Q 1947 1309 1714 600 
Q 1481 -109 1013 -844 
L 513 -844 
Q 928 -128 1133 580 
Q 1338 1288 1338 2009 
Q 1338 2731 1133 3434 
Q 928 4138 513 4856 
z
" transform="scale(0.015625)"/>
     </defs>
     <use xlink:href="#DejaVuSans-43"/>
     <use xlink:href="#DejaVuSans-6f" x="69.824219"/>
     <use xlink:href="#DejaVuSans-6c" x="131.005859"/>
     <use xlink:href="#DejaVuSans-64" x="158.789062"/>
     <use xlink:href="#DejaVuSans-65" x="222.265625"/>
     <use xlink:href="#DejaVuSans-73" x="283.789062"/>
     <use xlink:href="#DejaVuSans-74" x="335.888672"/>
     <use xlink:href="#DejaVuSans-2d" x="375.097656"/>
     <use xlink:href="#DejaVuSans-77" x="411.181641"/>
     <use xlink:href="#DejaVuSans-65" x="492.96875"/>
     <use xlink:href="#DejaVuSans-65" x="554.492188"/>
     <use xlink:href="#DejaVuSans-6b" x="616.015625"/>
     <use xlink:href="#DejaVuSans-20" x="673.925781"/>
     <use xlink:href="#DejaVuSans-66" x="705.712891"/>
     <use xlink:href="#DejaVuSans-61" x="740.917969"/>
     <use xlink:href="#DejaVuSans-63" x="802.197266"/>
     <use xlink:href="#DejaVuSans-69" x="857.177734"/>
     <use xlink:href="#DejaVuSans-6c" x="884.960938"/>
     <use xlink:href="#DejaVuSans-69" x="912.744141"/>
     <use xlink:href="#DejaVuSans-74" x="940.527344"/>
     <use xlink:href="#DejaVuSans-79" x="979.736328"/>
     <use xlink:href="#DejaVuSans-2d" x="1037.166016"/>
     <use xlink:href="#DejaVuSans-6b" x="1073.25"/>
     <use xlink:href="#DejaVuSans-57" x="1131.160156"/>
     <use xlink:href="#DejaVuSans-20" x="1230.037109"/>
     <use xlink:href="#DejaVuSans-70" x="1261.824219"/>
     <use xlink:href="#DejaVuSans-72" x="1325.300781"/>
     <use xlink:href="#DejaVuSans-6f" x="1364.164062"/>
     <use xlink:href="#DejaVuSans-66" x="1425.345703"/>
     <use xlink:href="#DejaVuSans-69" x="1460.550781"/>
     <use xlink:href="#DejaVuSans-6c" x="1488.333984"/>
     <use xlink:href="#DejaVuSans-65" x="1516.117188"/>
     <use xlink:href="#DejaVuSans-73" x="1577.640625"/>
     <use xlink:href="#DejaVuSans-20" x="1629.740234"/>
     <use xlink:href="#DejaVuSans-28" x="1661.527344"/>
     <use xlink:href="#DejaVuSans-32" x="1700.541016"/>
     <use xlink:href="#DejaVuSans-30" x="1764.164062"/>
     <use xlink:href="#DejaVuSans-32" x="1827.787109"/>
     <use xlink:href="#DejaVuSans-36" x="1891.410156"/>
     <use xlink:href="#DejaVuSans-2d" x="1955.033203"/>
     <use xlink:href="#DejaVuSans-30" x="1991.117188"/>
     <use xlink:href="#DejaVuSans-31" x="2054.740234"/>
     <use xlink:href="#DejaVuSans-2d" x="2118.363281"/>
     <use xlink:href="#DejaVuSans-31" x="2154.447266"/>
     <use xlink:href="#DejaVuSans-32" x="2218.070312"/>
     <use xlink:href="#DejaVuSans-20" x="2281.693359"/>
     <use xlink:href="#DejaVuSans-77" x="2313.480469"/>
     <use xlink:href="#DejaVuSans-65" x="2395.267578"/>
     <use xlink:href="#DejaVuSans-65" x="2456.791016"/>
     <use xlink:href="#DejaVuSans-6b" x="2518.314453"/>
     <use xlink:href="#DejaVuSans-29" x="2576.224609"/>
    </g>
   </g>
   <g id="legend_1">
    <g id="patch_7">
     <path d="M 418.586094 240.578125 
L 544.265625 240.578125 
Q 545.665625 240.578125 545.665625 239.178125 
L 545.665625 208.47 
Q 545.665625 207.07 544.265625 207.07 
L 418.586094 207.07 
Q 417.186094 207.07 417.186094 208.47 
L 417.186094 239.178125 
Q 417.186094 240.578125 418.586094 240.578125 
z
" style="fill: #ffffff; opacity: 0.8; stroke: #cccccc; stroke-linejoin: miter"/>
    </g>
    <g id="line2d_36">
     <path d="M 419.986094 212.738906 
L 426.986094 212.738906 
L 433.986094 212.738906 
" style="fill: none; stroke: #1f77b4; stroke-opacity: 0.85; stroke-width: 1.5; stroke-linecap: square"/>
    </g>
    <g id="text_20">
     <!-- ALWAYS_GRID_114 -->
     <g transform="translate(439.586094 215.188906) scale(0.07 -0.07)">
      <defs>
       <path id="DejaVuSans-5f" d="M 3263 -1063 
L 3263 -1509 
L -63 -1509 
L -63 -1063 
L 3263 -1063 
z
" transform="scale(0.015625)"/>
       <path id="DejaVuSans-47" d="M 3809 666 
L 3809 1919 
L 2778 1919 
L 2778 2438 
L 4434 2438 
L 4434 434 
Q 4069 175 3628 42 
Q 3188 -91 2688 -91 
Q 1594 -91 976 548 
Q 359 1188 359 2328 
Q 359 3472 976 4111 
Q 1594 4750 2688 4750 
Q 3144 4750 3555 4637 
Q 3966 4525 4313 4306 
L 4313 3634 
Q 3963 3931 3569 4081 
Q 3175 4231 2741 4231 
Q 1884 4231 1454 3753 
Q 1025 3275 1025 2328 
Q 1025 1384 1454 906 
Q 1884 428 2741 428 
Q 3075 428 3337 486 
Q 3600 544 3809 666 
z
" transform="scale(0.015625)"/>
      </defs>
      <use xlink:href="#DejaVuSans-41"/>
      <use xlink:href="#DejaVuSans-4c" x="68.408203"/>
      <use xlink:href="#DejaVuSans-57" x="114.996094"/>
      <use xlink:href="#DejaVuSans-41" x="208.373047"/>
      <use xlink:href="#DejaVuSans-59" x="269.03125"/>
      <use xlink:href="#DejaVuSans-53" x="330.115234"/>
      <use xlink:href="#DejaVuSans-5f" x="393.591797"/>
      <use xlink:href="#DejaVuSans-47" x="443.591797"/>
      <use xlink:href="#DejaVuSans-52" x="521.082031"/>
      <use xlink:href="#DejaVuSans-49" x="590.564453"/>
      <use xlink:href="#DejaVuSans-44" x="620.056641"/>
      <use xlink:href="#DejaVuSans-5f" x="697.058594"/>
      <use xlink:href="#DejaVuSans-31" x="747.058594"/>
      <use xlink:href="#DejaVuSans-31" x="810.681641"/>
      <use xlink:href="#DejaVuSans-34" x="874.304688"/>
     </g>
    </g>
    <g id="line2d_37">
     <path d="M 419.986094 223.208281 
L 426.986094 223.208281 
L 433.986094 223.208281 
" style="fill: none; stroke: #ff7f0e; stroke-opacity: 0.85; stroke-width: 1.5; stroke-linecap: square"/>
    </g>
    <g id="text_21">
     <!-- ALWAYS_CONTINUOUS_68_74 -->
     <g transform="translate(439.586094 225.658281) scale(0.07 -0.07)">
      <defs>
       <path id="DejaVuSans-38" d="M 2034 2216 
Q 1584 2216 1326 1975 
Q 1069 1734 1069 1313 
Q 1069 891 1326 650 
Q 1584 409 2034 409 
Q 2484 409 2743 651 
Q 3003 894 3003 1313 
Q 3003 1734 2745 1975 
Q 2488 2216 2034 2216 
z
M 1403 2484 
Q 997 2584 770 2862 
Q 544 3141 544 3541 
Q 544 4100 942 4425 
Q 1341 4750 2034 4750 
Q 2731 4750 3128 4425 
Q 3525 4100 3525 3541 
Q 3525 3141 3298 2862 
Q 3072 2584 2669 2484 
Q 3125 2378 3379 2068 
Q 3634 1759 3634 1313 
Q 3634 634 3220 271 
Q 2806 -91 2034 -91 
Q 1263 -91 848 271 
Q 434 634 434 1313 
Q 434 1759 690 2068 
Q 947 2378 1403 2484 
z
M 1172 3481 
Q 1172 3119 1398 2916 
Q 1625 2713 2034 2713 
Q 2441 2713 2670 2916 
Q 2900 3119 2900 3481 
Q 2900 3844 2670 4047 
Q 2441 4250 2034 4250 
Q 1625 4250 1398 4047 
Q 1172 3844 1172 3481 
z
" transform="scale(0.015625)"/>
      </defs>
      <use xlink:href="#DejaVuSans-41"/>
      <use xlink:href="#DejaVuSans-4c" x="68.408203"/>
      <use xlink:href="#DejaVuSans-57" x="114.996094"/>
      <use xlink:href="#DejaVuSans-41" x="208.373047"/>
      <use xlink:href="#DejaVuSans-59" x="269.03125"/>
      <use xlink:href="#DejaVuSans-53" x="330.115234"/>
      <use xlink:href="#DejaVuSans-5f" x="393.591797"/>
      <use xlink:href="#DejaVuSans-43" x="443.591797"/>
      <use xlink:href="#DejaVuSans-4f" x="513.416016"/>
      <use xlink:href="#DejaVuSans-4e" x="592.126953"/>
      <use xlink:href="#DejaVuSans-54" x="666.931641"/>
      <use xlink:href="#DejaVuSans-49" x="728.015625"/>
      <use xlink:href="#DejaVuSans-4e" x="757.507812"/>
      <use xlink:href="#DejaVuSans-55" x="832.3125"/>
      <use xlink:href="#DejaVuSans-4f" x="905.505859"/>
      <use xlink:href="#DejaVuSans-55" x="984.216797"/>
      <use xlink:href="#DejaVuSans-53" x="1057.410156"/>
      <use xlink:href="#DejaVuSans-5f" x="1120.886719"/>
      <use xlink:href="#DejaVuSans-36" x="1170.886719"/>
      <use xlink:href="#DejaVuSans-38" x="1234.509766"/>
      <use xlink:href="#DejaVuSans-5f" x="1298.132812"/>
      <use xlink:href="#DejaVuSans-37" x="1348.132812"/>
      <use xlink:href="#DejaVuSans-34" x="1411.755859"/>
     </g>
    </g>
    <g id="line2d_38">
     <path d="M 419.986094 233.677656 
L 426.986094 233.677656 
L 433.986094 233.677656 
" style="fill: none; stroke: #2ca02c; stroke-opacity: 0.85; stroke-width: 1.5; stroke-linecap: square"/>
    </g>
    <g id="text_22">
     <!-- COLD_TRIGGER_20F -->
     <g transform="translate(439.586094 236.127656) scale(0.07 -0.07)">
      <defs>
       <path id="DejaVuSans-46" d="M 628 4666 
L 3309 4666 
L 3309 4134 
L 1259 4134 
L 1259 2759 
L 3109 2759 
L 3109 2228 
L 1259 2228 
L 1259 0 
L 628 0 
L 628 4666 
z
" transform="scale(0.015625)"/>
      </defs>
      <use xlink:href="#DejaVuSans-43"/>
      <use xlink:href="#DejaVuSans-4f" x="69.824219"/>
      <use xlink:href="#DejaVuSans-4c" x="148.535156"/>
      <use xlink:href="#DejaVuSans-44" x="204.248047"/>
      <use xlink:href="#DejaVuSans-5f" x="281.25"/>
      <use xlink:href="#DejaVuSans-54" x="331.25"/>
      <use xlink:href="#DejaVuSans-52" x="392.333984"/>
      <use xlink:href="#DejaVuSans-49" x="461.816406"/>
      <use xlink:href="#DejaVuSans-47" x="491.308594"/>
      <use xlink:href="#DejaVuSans-47" x="568.798828"/>
      <use xlink:href="#DejaVuSans-45" x="646.289062"/>
      <use xlink:href="#DejaVuSans-52" x="709.472656"/>
      <use xlink:href="#DejaVuSans-5f" x="778.955078"/>
      <use xlink:href="#DejaVuSans-32" x="828.955078"/>
      <use xlink:href="#DejaVuSans-30" x="892.578125"/>
      <use xlink:href="#DejaVuSans-46" x="956.201172"/>
     </g>
    </g>
   </g>
  </g>
 </g>
 <defs>
  <clipPath id="p759ba1adbe">
   <rect x="46.965625" y="22.318125" width="502.2" height="221.76"/>
  </clipPath>
 </defs>
</svg>
